; NON-PLATED HOLES START AT T1
; THROUGH (PLATED) HOLES START AT T100
M48
INCH
T100C0.039370
T101C0.031497
T102C0.038000
T103C0.035000
%
T100
X003513Y014938
X005513Y014938
X004513Y014938
T101
X007513Y002070
X007513Y001086
T102
X001513Y001524
X002513Y001524
T103
X007513Y005524
X005513Y001524
X007513Y003524
X007513Y010523
X001513Y010523
X005513Y005524
X003513Y008523
X001513Y004524
X004513Y012523
X007513Y014523
X001513Y014523
X007513Y007523
X001513Y009523
X001513Y013523
X007513Y004524
X007513Y006523
X001513Y006523
X005513Y008523
X007513Y011523
X007513Y008523
X003513Y003524
X001513Y007523
X004513Y008523
X001513Y008523
X001513Y011523
X001513Y003524
X007513Y013523
X003513Y007523
X007513Y009523
X001513Y012523
X003513Y012523
X007513Y012523
X001513Y005524
X005513Y012523
T00
M30
